<svg xmlns="http://www.w3.org/2000/svg" width="154" height="154" viewBox="0 0 154 154">
    <defs>
        <filter id="m0c88ufpna" x="0" y="0" width="154" height="154" filterUnits="userSpaceOnUse">
            <feOffset/>
            <feGaussianBlur stdDeviation="15" result="blur"/>
            <feFlood flood-opacity=".192"/>
            <feComposite operator="in" in2="blur"/>
            <feComposite in="SourceGraphic"/>
        </filter>
    </defs>
    <g data-name="그룹 7411">
        <g style="filter:url(#m0c88ufpna)">
            <circle data-name="타원 7" cx="32" cy="32" r="32" transform="translate(44.999 44.999)" style="fill:#ffce00"/>
        </g>
        <g data-name="그룹 8185">
            <path data-name="패스 9850" d="M596.076 489.775a1.7 1.7 0 0 0-.732-.584 1.379 1.379 0 0 0-.522-.1h-.135a1.453 1.453 0 0 0-.436.08 1.122 1.122 0 0 0-.718 1.04v27.409a1.111 1.111 0 0 0 .652 1.013 1.152 1.152 0 0 0 1.191-.171l7.135-5.662 16.511 5.261a1.123 1.123 0 0 0 1.276-1.776c-.239-.274-24.071-26.333-24.222-26.51zm5.634 18.157a.8.8 0 0 0-.83.152l-3.4 3.106v-13.182l12.51 13.332z" transform="translate(-530.27 -426.402)" style="fill:#333"/>
            <path data-name="패스 9851" d="M618.935 491.215c-2.1-2.1-5.35-3.263-9.151-3.263H599a.458.458 0 0 0-.439.252.519.519 0 0 0 .1.546c.822 1.055 1.835 2.09 3.081 3.53a.361.361 0 0 0 .271.124h7.647c4.535 0 7.242 1.952 7.242 5.223v.084a4.714 4.714 0 0 1-1.959 3.936 8.333 8.333 0 0 1-2.609 1.375.556.556 0 0 0-.353.377.824.824 0 0 0 .127.636c1 1.177 1.438 1.49 2.261 2.425a.6.6 0 0 0 .305.2.79.79 0 0 0 .24.008 3.016 3.016 0 0 0 .476-.173 2.148 2.148 0 0 0 .3-.116c3.846-2.149 5.827-4.893 5.827-8.754v-.084a8.992 8.992 0 0 0-2.582-6.326z" transform="translate(-530.783 -426.284)" style="fill:#333"/>
        </g>
    </g>
</svg>
