<svg xmlns="http://www.w3.org/2000/svg" width="150" height="39.686" viewBox="0 0 150 39.686">
    <g data-name="그룹 474229">
        <g data-name="그룹 8180">
            <circle data-name="타원 97" cx="19.272" cy="19.272" r="19.272" transform="rotate(-1.723 38.538 .58)" style="fill:#ffd935"/>
            <g data-name="그룹 8179">
                <path data-name="패스 9839" d="M363.953 149.81a1.111 1.111 0 0 0-.478-.381.89.89 0 0 0-.341-.063h-.089a.964.964 0 0 0-.285.052.733.733 0 0 0-.469.68v17.907a.726.726 0 0 0 .426.662.751.751 0 0 0 .779-.112l4.661-3.7 10.787 3.437a.728.728 0 0 0 .872-.244.737.737 0 0 0-.038-.916c-.156-.18-15.727-17.207-15.825-17.322zm3.681 11.863a.526.526 0 0 0-.543.1l-2.224 2.029v-8.612l8.173 8.711z" transform="translate(-350.848 -138.871)" style="fill:#333"/>
                <path data-name="패스 9840" d="M380.713 150.333a8.331 8.331 0 0 0-5.979-2.131h-7.045a.3.3 0 0 0-.286.164.337.337 0 0 0 .066.357c.537.689 1.2 1.366 2.013 2.306a.232.232 0 0 0 .177.081h5c2.962 0 4.731 1.275 4.731 3.412v.056a3.079 3.079 0 0 1-1.279 2.571 5.448 5.448 0 0 1-1.7.9.362.362 0 0 0-.231.246.539.539 0 0 0 .083.416c.652.769.94.973 1.477 1.584a.4.4 0 0 0 .2.132.53.53 0 0 0 .157.005 1.975 1.975 0 0 0 .311-.113 1.576 1.576 0 0 0 .2-.075c2.512-1.4 3.807-3.2 3.807-5.72v-.055a5.876 5.876 0 0 0-1.702-4.136z" transform="translate(-353.009 -138.376)" style="fill:#333"/>
            </g>
        </g>
        <g data-name="그룹 8181">
            <path data-name="패스 9841" d="M435.69 157.815a4.6 4.6 0 0 0 1.093-3.164 4.846 4.846 0 0 0-.553-2.393 4.542 4.542 0 0 0-1.466-1.59 6.21 6.21 0 0 0-2.075-.864 10.938 10.938 0 0 0-2.386-.26h-6.116v17.591h3.352v-7.329h2l3.974 7.317.006.012h4.035l-4.617-7.722a5.4 5.4 0 0 0 2.753-1.598zm-8.151-5.386h2.619a7.564 7.564 0 0 1 1.178.1 3.19 3.19 0 0 1 1.055.35 2.221 2.221 0 0 1 .751.676 1.846 1.846 0 0 1 .289 1.076 2.1 2.1 0 0 1-.315 1.2 2.167 2.167 0 0 1-.806.721 3.633 3.633 0 0 1-1.132.352 8.815 8.815 0 0 1-1.288.1h-2.352z" transform="translate(-377.155 -138.946)" style="fill:#333"/>
            <path data-name="패스 9842" d="M460.064 160.283a5.037 5.037 0 0 0-1.837-1.233 6.291 6.291 0 0 0-2.3-.413 6.671 6.671 0 0 0-2.493.462 5.967 5.967 0 0 0-2 1.3 6.057 6.057 0 0 0-1.332 2.027 6.958 6.958 0 0 0-.484 2.633 6.83 6.83 0 0 0 .484 2.634 5.627 5.627 0 0 0 1.346 1.969 6.056 6.056 0 0 0 2.026 1.24 7.267 7.267 0 0 0 2.551.436 5.983 5.983 0 0 0 5.117-2.4l.083-.114-2.156-1.737-.018-.014-.09.131a3.34 3.34 0 0 1-1.186 1.065 3.741 3.741 0 0 1-1.774.385 3.272 3.272 0 0 1-1.161-.21 3.529 3.529 0 0 1-1-.575 2.81 2.81 0 0 1-.7-.858 2.772 2.772 0 0 1-.294-.944h8.824l.016-.129a3.375 3.375 0 0 0 .025-.409v-.39a8.387 8.387 0 0 0-.434-2.823 5.708 5.708 0 0 0-1.213-2.033zm-7.223 3.386a2.755 2.755 0 0 1 .941-1.781 3.133 3.133 0 0 1 2.124-.757 2.868 2.868 0 0 1 1.164.218 2.316 2.316 0 0 1 .81.585 2.351 2.351 0 0 1 .468.85 3.511 3.511 0 0 1 .149.884z" transform="translate(-387.964 -142.81)" style="fill:#333"/>
            <path data-name="패스 9843" d="M482.765 159.135a6.838 6.838 0 0 0-5.01-.05 6.181 6.181 0 0 0-2.025 1.276 6.042 6.042 0 0 0-1.381 2 6.565 6.565 0 0 0-.51 2.624 6.7 6.7 0 0 0 .51 2.673 5.849 5.849 0 0 0 3.457 3.255 7.322 7.322 0 0 0 2.489.424 7.034 7.034 0 0 0 2.491-.436 4.985 4.985 0 0 0 1.911-1.247l.1-.1-2.017-2.058-.017-.017-.1.129a2.457 2.457 0 0 1-1.031.737 3.548 3.548 0 0 1-1.3.259 2.885 2.885 0 0 1-1.375-.313 3.015 3.015 0 0 1-.984-.826 3.661 3.661 0 0 1-.595-1.163 4.475 4.475 0 0 1-.2-1.313 4.731 4.731 0 0 1 .187-1.314 3.634 3.634 0 0 1 .572-1.163 2.936 2.936 0 0 1 .959-.825 2.768 2.768 0 0 1 1.337-.313 3 3 0 0 1 1.318.316 2.449 2.449 0 0 1 .963.769l.095.136 2.2-1.949.016-.014-.09-.11a4.882 4.882 0 0 0-1.97-1.387z" transform="translate(-398.257 -142.809)" style="fill:#333"/>
            <path data-name="패스 9844" d="M507.164 160.363a6.084 6.084 0 0 0-2.063-1.278 7.342 7.342 0 0 0-5.054 0 5.954 5.954 0 0 0-3.444 3.267 6.415 6.415 0 0 0-.509 2.587 6.5 6.5 0 0 0 .509 2.6 6.178 6.178 0 0 0 1.379 2.013 6.308 6.308 0 0 0 2.061 1.314 6.982 6.982 0 0 0 5.059 0 6.312 6.312 0 0 0 2.061-1.313 6.168 6.168 0 0 0 1.379-2.014 6.5 6.5 0 0 0 .51-2.6 6.42 6.42 0 0 0-.51-2.587 6.064 6.064 0 0 0-1.378-1.989zm-6.025 1.275a3.452 3.452 0 0 1 2.872 0 2.991 2.991 0 0 1 .994.826 3.677 3.677 0 0 1 .6 1.163 4.48 4.48 0 0 1 .2 1.313 4.6 4.6 0 0 1-.2 1.325 3.658 3.658 0 0 1-.6 1.175 3.106 3.106 0 0 1-1 .839 3.332 3.332 0 0 1-2.868 0 3.108 3.108 0 0 1-1-.839 3.615 3.615 0 0 1-.594-1.175 4.578 4.578 0 0 1-.2-1.325 4.463 4.463 0 0 1 .2-1.313 3.657 3.657 0 0 1 .594-1.163 2.98 2.98 0 0 1 1.002-.826z" transform="translate(-407.716 -142.81)" style="fill:#333"/>
            <path data-name="패스 9845" d="M534.239 160.468a5.563 5.563 0 0 0-4.185-1.831 5.422 5.422 0 0 0-1.484.189 5.663 5.663 0 0 0-1.183.477 3.961 3.961 0 0 0-.895.66 4.986 4.986 0 0 0-.391.441v-1.425h-3.084v17.884h3.206v-7.18a4.125 4.125 0 0 0 1.425 1.13 5.179 5.179 0 0 0 2.333.528 5.561 5.561 0 0 0 4.3-1.894 6.145 6.145 0 0 0 1.169-2.027 7.449 7.449 0 0 0 .408-2.479 7.13 7.13 0 0 0-.422-2.469 6.074 6.074 0 0 0-1.197-2.004zm-1.639 4.472a4.607 4.607 0 0 1-.2 1.325 3.617 3.617 0 0 1-.594 1.174 3.1 3.1 0 0 1-1 .839 3.175 3.175 0 0 1-2.773.011 3.369 3.369 0 0 1-1.034-.831 3.644 3.644 0 0 1-.653-1.163 4.012 4.012 0 0 1-.223-1.308 4.121 4.121 0 0 1 .224-1.321 3.618 3.618 0 0 1 .652-1.174 3.558 3.558 0 0 1 1.037-.845 2.829 2.829 0 0 1 1.362-.324 2.912 2.912 0 0 1 2.406 1.138 3.661 3.661 0 0 1 .594 1.163 4.482 4.482 0 0 1 .202 1.316z" transform="translate(-419.158 -142.81)" style="fill:#333"/>
            <path data-name="패스 9846" d="M551.083 149.248a1.934 1.934 0 0 0-1.427.568 1.866 1.866 0 0 0 0 2.675 1.931 1.931 0 0 0 1.427.569 2.071 2.071 0 0 0 1.447-.539 1.871 1.871 0 0 0 0-2.735 2.074 2.074 0 0 0-1.447-.538z" transform="translate(-430.24 -138.82)" style="fill:#333"/>
            <path data-name="사각형 340256" transform="translate(119.265 16.168)" style="fill:#333" d="M0 0h3.206v12.02H0z"/>
            <path data-name="패스 9847" d="M568.778 159.135a6.848 6.848 0 0 0-5.01-.05 6.179 6.179 0 0 0-2.025 1.276 6.063 6.063 0 0 0-1.381 2 6.568 6.568 0 0 0-.509 2.624 6.7 6.7 0 0 0 .509 2.673 5.856 5.856 0 0 0 3.458 3.255 7.319 7.319 0 0 0 2.489.424 7.032 7.032 0 0 0 2.491-.436 4.983 4.983 0 0 0 1.911-1.247l.1-.1-2.018-2.058-.017-.017-.1.129a2.45 2.45 0 0 1-1.031.737 3.53 3.53 0 0 1-1.3.259 2.889 2.889 0 0 1-1.375-.313 3.019 3.019 0 0 1-.983-.826 3.673 3.673 0 0 1-.595-1.163 4.46 4.46 0 0 1-.2-1.313 4.728 4.728 0 0 1 .189-1.315 3.624 3.624 0 0 1 .571-1.162 2.918 2.918 0 0 1 .96-.825 2.759 2.759 0 0 1 1.336-.313 3 3 0 0 1 1.318.316 2.446 2.446 0 0 1 .963.769l.095.136 2.2-1.949.016-.014-.09-.11a4.878 4.878 0 0 0-1.972-1.387z" transform="translate(-434.814 -142.81)" style="fill:#333"/>
            <path data-name="패스 9848" d="m588.977 159.7 5.158-5.418.034-.036h-4.145l-4.276 4.778v-11.519h-3.206v18.763h3.206v-5.818l4.456 5.809.007.008h4.245z" transform="translate(-444.457 -138.079)" style="fill:#333"/>
        </g>
    </g>
</svg>
